<mxfile host="Electron" agent="Mozilla/5.0 (Windows NT 10.0; Win64; x64) AppleWebKit/537.36 (KHTML, like Gecko) draw.io/26.1.1 Chrome/132.0.6834.210 Electron/34.3.3 Safari/537.36" version="26.1.1">
  <diagram name="Page-1" id="E1PK-UuPqf24RMFOqfBV">
    <mxGraphModel dx="627" dy="285" grid="1" gridSize="10" guides="1" tooltips="1" connect="1" arrows="1" fold="1" page="1" pageScale="1" pageWidth="850" pageHeight="1100" math="0" shadow="0">
      <root>
        <mxCell id="0" />
        <mxCell id="1" parent="0" />
        <mxCell id="9iDCx48THAGbautemjCP-1" value="MyDate" style="swimlane;fontStyle=1;align=center;verticalAlign=top;childLayout=stackLayout;horizontal=1;startSize=30;horizontalStack=0;resizeParent=1;resizeParentMax=0;resizeLast=0;collapsible=1;marginBottom=0;whiteSpace=wrap;html=1;fillColor=#dae8fc;strokeColor=#6c8ebf;spacing=3;" vertex="1" parent="1">
          <mxGeometry x="280" y="190" width="210" height="190" as="geometry" />
        </mxCell>
        <mxCell id="9iDCx48THAGbautemjCP-2" value="year: int&lt;div&gt;month: int&lt;/div&gt;&lt;div&gt;day: int&lt;/div&gt;" style="text;strokeColor=#6c8ebf;fillColor=#dae8fc;align=left;verticalAlign=top;spacingLeft=4;spacingRight=4;overflow=hidden;rotatable=0;points=[[0,0.5],[1,0.5]];portConstraint=eastwest;whiteSpace=wrap;html=1;spacingBottom=0;spacingTop=-4;" vertex="1" parent="9iDCx48THAGbautemjCP-1">
          <mxGeometry y="30" width="210" height="50" as="geometry" />
        </mxCell>
        <mxCell id="9iDCx48THAGbautemjCP-3" value="" style="line;strokeWidth=1;fillColor=#dae8fc;align=left;verticalAlign=middle;spacingTop=-1;spacingLeft=3;spacingRight=3;rotatable=0;labelPosition=right;points=[];portConstraint=eastwest;strokeColor=#6c8ebf;" vertex="1" parent="9iDCx48THAGbautemjCP-1">
          <mxGeometry y="80" width="210" as="geometry" />
        </mxCell>
        <mxCell id="9iDCx48THAGbautemjCP-4" value="&lt;div&gt;MyDate()&lt;/div&gt;&lt;div&gt;MyDate(elapsedTime: long)&lt;/div&gt;&lt;div&gt;MyDate(year: int, month: int, day: int)&lt;/div&gt;&lt;div&gt;getYear(): int&lt;/div&gt;&lt;div&gt;getMonth(): int&lt;/div&gt;&lt;div&gt;getDay(): int&lt;/div&gt;&lt;div&gt;setDate(elapsedTime: long): void&lt;/div&gt;" style="text;strokeColor=#6c8ebf;fillColor=#dae8fc;align=left;verticalAlign=top;spacingLeft=4;spacingRight=4;overflow=hidden;rotatable=0;points=[[0,0.5],[1,0.5]];portConstraint=eastwest;whiteSpace=wrap;html=1;spacingTop=-2;" vertex="1" parent="9iDCx48THAGbautemjCP-1">
          <mxGeometry y="80" width="210" height="110" as="geometry" />
        </mxCell>
      </root>
    </mxGraphModel>
  </diagram>
</mxfile>
